<?xml version="1.0" standalone="no"?>
<!DOCTYPE svg PUBLIC "-//W3C//DTD SVG 20010904//EN"
 "http://www.w3.org/TR/2001/REC-SVG-20010904/DTD/svg10.dtd">
<svg version="1.0" xmlns="http://www.w3.org/2000/svg"
 width="512.000000pt" height="512.000000pt" viewBox="0 0 512.000000 512.000000"
 preserveAspectRatio="xMidYMid meet">

<g transform="translate(0.000000,512.000000) scale(0.100000,-0.100000)"
fill="#000000" stroke="none">
<path d="M1705 5099 c-315 -146 -410 -197 -570 -307 -245 -169 -484 -406 -657
-652 -447 -636 -589 -1452 -383 -2205 89 -323 236 -621 447 -903 83 -111 336
-370 448 -458 205 -161 492 -324 724 -409 281 -103 618 -165 901 -165 469 1
948 130 1342 362 391 230 710 550 947 949 50 85 217 430 211 437 -1 1 -73 -30
-161 -69 -377 -168 -670 -233 -1049 -232 -393 0 -733 78 -1080 247 -748 366
-1252 1073 -1366 1916 -17 122 -17 468 0 590 35 261 103 494 220 755 39 87 70
160 68 161 -1 1 -20 -7 -42 -17z m-290 -341 c-97 -295 -137 -542 -138 -853 -1
-212 9 -312 49 -520 202 -1028 1031 -1857 2059 -2059 205 -40 306 -49 520 -49
261 1 520 36 720 98 28 9 72 22 98 30 l48 14 -22 -37 c-115 -193 -245 -356
-411 -518 -372 -361 -830 -587 -1358 -670 -158 -25 -526 -26 -691 -1 -543 81
-1019 320 -1406 706 -287 286 -511 670 -622 1066 -70 250 -97 477 -88 740 8
230 29 373 89 590 140 508 458 975 883 1296 76 57 261 179 271 179 2 0 2 -6
-1 -12z"/>
</g>
</svg>
